<svg width="367" height="74" viewBox="0 0 367 74" fill="none" xmlns="http://www.w3.org/2000/svg">
<path d="M23.688 72.96C19.272 72.96 15.304 71.84 11.784 69.6C8.264 67.296 5.48 64.192 3.432 60.288C1.448 56.32 0.456 51.744 0.456 46.56C0.456 41.504 1.448 36.992 3.432 33.024C5.48 29.056 8.232 25.92 11.688 23.616C15.208 21.312 19.208 20.16 23.688 20.16C26.056 20.16 28.328 20.544 30.504 21.312C32.744 22.016 34.728 23.008 36.456 24.288C38.248 25.568 39.688 27.008 40.776 28.608C41.864 30.144 42.472 31.776 42.6 33.504L39.144 34.08V0.959999H52.776V72H39.912L39.336 60.288L42.024 60.576C41.896 62.176 41.32 63.712 40.296 65.184C39.272 66.656 37.896 68 36.168 69.216C34.504 70.368 32.584 71.296 30.408 72C28.296 72.64 26.056 72.96 23.688 72.96ZM26.76 61.632C29.32 61.632 31.56 60.992 33.48 59.712C35.4 58.432 36.904 56.672 37.992 54.432C39.08 52.192 39.624 49.568 39.624 46.56C39.624 43.616 39.08 41.024 37.992 38.784C36.904 36.48 35.4 34.72 33.48 33.504C31.56 32.224 29.32 31.584 26.76 31.584C24.2 31.584 21.96 32.224 20.04 33.504C18.184 34.72 16.712 36.48 15.624 38.784C14.6 41.024 14.088 43.616 14.088 46.56C14.088 49.568 14.6 52.192 15.624 54.432C16.712 56.672 18.184 58.432 20.04 59.712C21.96 60.992 24.2 61.632 26.76 61.632ZM86.322 72.96C80.818 72.96 76.018 71.84 71.922 69.6C67.826 67.36 64.626 64.288 62.322 60.384C60.018 56.48 58.866 52 58.866 46.944C58.866 43.04 59.506 39.456 60.786 36.192C62.066 32.928 63.858 30.112 66.162 27.744C68.466 25.312 71.186 23.456 74.322 22.176C77.522 20.832 80.978 20.16 84.69 20.16C88.146 20.16 91.346 20.8 94.29 22.08C97.234 23.296 99.762 25.056 101.874 27.36C104.05 29.6 105.714 32.256 106.866 35.328C108.018 38.4 108.53 41.76 108.402 45.408L108.306 49.632H67.506L65.298 41.28H97.074L95.538 43.008V40.896C95.41 39.168 94.834 37.6 93.81 36.192C92.85 34.784 91.602 33.696 90.066 32.928C88.53 32.16 86.802 31.776 84.882 31.776C82.066 31.776 79.666 32.32 77.682 33.408C75.762 34.496 74.29 36.096 73.266 38.208C72.242 40.32 71.73 42.88 71.73 45.888C71.73 48.96 72.37 51.616 73.65 53.856C74.994 56.096 76.85 57.856 79.218 59.136C81.65 60.352 84.498 60.96 87.762 60.96C90.002 60.96 92.05 60.608 93.906 59.904C95.762 59.2 97.746 57.984 99.858 56.256L106.386 65.376C104.53 67.04 102.482 68.448 100.242 69.6C98.002 70.688 95.698 71.52 93.33 72.096C90.962 72.672 88.626 72.96 86.322 72.96ZM131.724 72.96C126.988 72.96 122.764 72.192 119.052 70.656C115.404 69.056 112.46 66.88 110.22 64.128L118.668 56.832C120.652 58.944 122.86 60.48 125.292 61.44C127.724 62.336 130.156 62.784 132.588 62.784C133.548 62.784 134.412 62.688 135.18 62.496C136.012 62.24 136.716 61.92 137.292 61.536C137.868 61.088 138.284 60.576 138.54 60C138.86 59.36 139.02 58.688 139.02 57.984C139.02 56.576 138.444 55.456 137.292 54.624C136.652 54.304 135.66 53.92 134.316 53.472C132.972 52.96 131.244 52.416 129.132 51.84C125.868 51.008 123.084 50.048 120.78 48.96C118.54 47.808 116.748 46.528 115.404 45.12C114.252 43.776 113.356 42.336 112.716 40.8C112.14 39.2 111.852 37.44 111.852 35.52C111.852 33.216 112.364 31.136 113.388 29.28C114.412 27.36 115.82 25.728 117.612 24.384C119.468 23.04 121.58 22.016 123.948 21.312C126.316 20.544 128.812 20.16 131.436 20.16C134.06 20.16 136.62 20.48 139.116 21.12C141.612 21.76 143.916 22.688 146.028 23.904C148.204 25.056 150.092 26.432 151.692 28.032L144.396 36.096C143.244 35.008 141.932 34.016 140.46 33.12C139.052 32.224 137.58 31.52 136.044 31.008C134.508 30.496 133.132 30.24 131.916 30.24C130.828 30.24 129.836 30.336 128.94 30.528C128.108 30.72 127.404 31.008 126.828 31.392C126.252 31.776 125.804 32.288 125.484 32.928C125.228 33.504 125.1 34.144 125.1 34.848C125.1 35.552 125.26 36.224 125.58 36.864C125.964 37.504 126.476 38.048 127.116 38.496C127.82 38.88 128.844 39.328 130.188 39.84C131.596 40.352 133.484 40.928 135.852 41.568C138.924 42.4 141.516 43.328 143.628 44.352C145.804 45.376 147.532 46.56 148.812 47.904C149.9 49.056 150.7 50.368 151.212 51.84C151.724 53.312 151.98 54.944 151.98 56.736C151.98 59.872 151.084 62.688 149.292 65.184C147.564 67.616 145.164 69.536 142.092 70.944C139.02 72.288 135.564 72.96 131.724 72.96ZM175.33 72.96C171.618 72.96 168.418 72.16 165.73 70.56C163.106 68.896 161.058 66.56 159.586 63.552C158.178 60.48 157.474 56.8 157.474 52.512V21.216H171.106V50.304C171.106 52.608 171.49 54.624 172.258 56.352C173.026 58.016 174.114 59.296 175.522 60.192C176.93 61.088 178.658 61.536 180.706 61.536C182.178 61.536 183.554 61.312 184.834 60.864C186.114 60.352 187.202 59.648 188.098 58.752C188.994 57.856 189.698 56.8 190.21 55.584C190.722 54.368 190.978 53.056 190.978 51.648V21.216H204.61V72H191.65L191.17 61.536L193.666 60.384C192.898 62.752 191.618 64.896 189.826 66.816C188.034 68.736 185.89 70.24 183.394 71.328C180.898 72.416 178.21 72.96 175.33 72.96ZM214.391 72V21.216H227.543L227.831 30.912L225.815 31.296C226.519 29.632 227.447 28.128 228.599 26.784C229.751 25.44 231.095 24.288 232.631 23.328C234.231 22.368 235.895 21.632 237.623 21.12C239.351 20.544 241.079 20.256 242.807 20.256C245.431 20.256 247.799 20.672 249.911 21.504C252.023 22.336 253.815 23.648 255.287 25.44C256.759 27.168 257.911 29.472 258.743 32.352L256.631 32.16L257.303 30.624C258.135 29.088 259.191 27.712 260.471 26.496C261.751 25.216 263.191 24.128 264.791 23.232C266.391 22.272 268.055 21.536 269.783 21.024C271.511 20.512 273.207 20.256 274.871 20.256C278.839 20.256 282.135 21.056 284.759 22.656C287.383 24.192 289.335 26.528 290.615 29.664C291.959 32.8 292.631 36.64 292.631 41.184V72H278.999V42.144C278.999 39.84 278.679 37.952 278.039 36.48C277.399 35.008 276.471 33.92 275.255 33.216C274.039 32.448 272.471 32.064 270.551 32.064C269.079 32.064 267.703 32.32 266.423 32.832C265.207 33.28 264.119 33.952 263.159 34.848C262.263 35.68 261.559 36.672 261.047 37.824C260.535 38.976 260.279 40.256 260.279 41.664V72H246.647V42.048C246.647 39.936 246.295 38.144 245.591 36.672C244.951 35.136 244.023 33.984 242.807 33.216C241.591 32.448 240.087 32.064 238.295 32.064C236.823 32.064 235.447 32.32 234.167 32.832C232.951 33.28 231.895 33.952 230.999 34.848C230.103 35.68 229.367 36.672 228.791 37.824C228.279 38.976 228.023 40.224 228.023 41.568V72H214.391ZM325.868 72.96C320.364 72.96 315.564 71.84 311.468 69.6C307.372 67.36 304.172 64.288 301.868 60.384C299.564 56.48 298.412 52 298.412 46.944C298.412 43.04 299.052 39.456 300.332 36.192C301.612 32.928 303.404 30.112 305.708 27.744C308.012 25.312 310.732 23.456 313.868 22.176C317.068 20.832 320.524 20.16 324.236 20.16C327.692 20.16 330.892 20.8 333.836 22.08C336.78 23.296 339.308 25.056 341.42 27.36C343.596 29.6 345.26 32.256 346.412 35.328C347.564 38.4 348.076 41.76 347.948 45.408L347.852 49.632H307.052L304.844 41.28H336.62L335.084 43.008V40.896C334.956 39.168 334.38 37.6 333.356 36.192C332.396 34.784 331.148 33.696 329.612 32.928C328.076 32.16 326.348 31.776 324.428 31.776C321.612 31.776 319.212 32.32 317.228 33.408C315.308 34.496 313.836 36.096 312.812 38.208C311.788 40.32 311.276 42.88 311.276 45.888C311.276 48.96 311.916 51.616 313.196 53.856C314.54 56.096 316.396 57.856 318.764 59.136C321.196 60.352 324.044 60.96 327.308 60.96C329.548 60.96 331.596 60.608 333.452 59.904C335.308 59.2 337.292 57.984 339.404 56.256L345.932 65.376C344.076 67.04 342.028 68.448 339.788 69.6C337.548 70.688 335.244 71.52 332.876 72.096C330.508 72.672 328.172 72.96 325.868 72.96ZM359.27 73.056C356.774 73.056 354.854 72.352 353.51 70.944C352.166 69.536 351.494 67.52 351.494 64.896C351.494 62.528 352.198 60.608 353.606 59.136C355.078 57.6 356.966 56.832 359.27 56.832C361.702 56.832 363.59 57.536 364.934 58.944C366.278 60.352 366.95 62.336 366.95 64.896C366.95 67.328 366.246 69.312 364.838 70.848C363.43 72.32 361.574 73.056 359.27 73.056Z" fill="black"/>
</svg>
