<svg width="600" height="300" viewBox="0 0 600 300" fill="none" xmlns="http://www.w3.org/2000/svg">
<rect width="300" height="300" fill="black"/>
<path d="M150 246C270.421 246 208.507 54 150 54C91.4928 54 29.5792 246 150 246Z" fill="white"/>
<path d="M374.96 127H360.08C358.864 127 357.968 126.744 357.392 126.232C356.88 125.656 356.624 124.76 356.624 123.544V61.336C356.624 60.12 356.88 59.256 357.392 58.744C357.968 58.168 358.864 57.88 360.08 57.88H389.456C398.16 57.88 404.112 59.608 407.312 63.064C410.512 66.52 412.112 71.032 412.112 76.6V88.888C412.112 94.456 410.512 98.968 407.312 102.424C404.112 105.88 398.16 107.608 389.456 107.608H378.416V123.544C378.416 124.76 378.128 125.656 377.552 126.232C377.04 126.744 376.176 127 374.96 127ZM378.224 75.832V90.328H386.864C388.72 90.328 389.936 89.848 390.512 88.888C391.088 87.928 391.376 86.84 391.376 85.624V80.536C391.376 79.32 391.088 78.232 390.512 77.272C389.936 76.312 388.72 75.832 386.864 75.832H378.224ZM457.87 127H425.518C424.302 127 423.406 126.744 422.83 126.232C422.318 125.656 422.062 124.76 422.062 123.544V61.336C422.062 60.12 422.318 59.256 422.83 58.744C423.406 58.168 424.302 57.88 425.518 57.88H457.87C465.87 57.88 471.79 59.48 475.63 62.68C479.534 65.88 481.486 70.808 481.486 77.464V107.416C481.486 114.072 479.534 119 475.63 122.2C471.79 125.4 465.87 127 457.87 127ZM443.854 76.216V108.856H455.278C456.814 108.856 457.934 108.472 458.638 107.704C459.406 106.936 459.79 105.752 459.79 104.152V80.824C459.79 79.224 459.406 78.072 458.638 77.368C457.934 76.6 456.814 76.216 455.278 76.216H443.854ZM512.023 127H497.143C495.927 127 495.031 126.744 494.455 126.232C493.943 125.656 493.687 124.76 493.687 123.544V61.336C493.687 60.12 493.943 59.256 494.455 58.744C495.031 58.168 495.927 57.88 497.143 57.88H539.958C541.175 57.88 542.039 58.168 542.551 58.744C543.127 59.256 543.415 60.12 543.415 61.336V72.76C543.415 73.976 543.127 74.872 542.551 75.448C542.039 75.96 541.175 76.216 539.958 76.216H515.479V86.2H532.183C533.399 86.2 534.263 86.488 534.775 87.064C535.351 87.576 535.639 88.44 535.639 89.656V101.176C535.639 102.392 535.351 103.288 534.775 103.864C534.263 104.376 533.399 104.632 532.183 104.632H515.479V123.544C515.479 124.76 515.191 125.656 514.615 126.232C514.103 126.744 513.239 127 512.023 127ZM404.624 242H360.08C358.864 242 357.968 241.744 357.392 241.232C356.88 240.656 356.624 239.76 356.624 238.544V176.336C356.624 175.12 356.88 174.256 357.392 173.744C357.968 173.168 358.864 172.88 360.08 172.88H404.624C405.84 172.88 406.704 173.168 407.216 173.744C407.792 174.256 408.08 175.12 408.08 176.336V187.568C408.08 188.784 407.792 189.68 407.216 190.256C406.704 190.768 405.84 191.024 404.624 191.024H378.128V198.416H396.848C398.064 198.416 398.928 198.704 399.44 199.28C400.016 199.792 400.304 200.656 400.304 201.872V212.144C400.304 213.36 400.016 214.256 399.44 214.832C398.928 215.344 398.064 215.6 396.848 215.6H378.128V223.856H404.624C405.84 223.856 406.704 224.144 407.216 224.72C407.792 225.232 408.08 226.096 408.08 227.312V238.544C408.08 239.76 407.792 240.656 407.216 241.232C406.704 241.744 405.84 242 404.624 242ZM471.768 242H441.528C433.528 242 427.576 240.4 423.672 237.2C419.832 234 417.912 229.072 417.912 222.416V192.464C417.912 185.808 419.832 180.88 423.672 177.68C427.576 174.48 433.528 172.88 441.528 172.88H465.528C466.744 172.88 467.608 173.168 468.12 173.744C468.696 174.256 468.984 175.12 468.984 176.336V187.952C468.984 189.168 468.696 190.064 468.12 190.64C467.608 191.152 466.744 191.408 465.528 191.408H445.56C443.576 191.408 442.104 191.824 441.144 192.656C440.184 193.424 439.704 194.608 439.704 196.208V219.152C439.704 220.752 440.056 221.936 440.76 222.704C441.528 223.472 442.648 223.856 444.12 223.856H453.432V208.88C453.432 207.664 453.688 206.8 454.2 206.288C454.776 205.712 455.672 205.424 456.888 205.424H471.768C472.984 205.424 473.848 205.712 474.36 206.288C474.936 206.8 475.224 207.664 475.224 208.88V238.544C475.224 239.76 474.936 240.656 474.36 241.232C473.848 241.744 472.984 242 471.768 242ZM539.737 242H509.497C501.497 242 495.545 240.4 491.641 237.2C487.801 234 485.881 229.072 485.881 222.416V192.464C485.881 185.808 487.801 180.88 491.641 177.68C495.545 174.48 501.497 172.88 509.497 172.88H533.497C534.713 172.88 535.577 173.168 536.089 173.744C536.665 174.256 536.953 175.12 536.953 176.336V187.952C536.953 189.168 536.665 190.064 536.089 190.64C535.577 191.152 534.713 191.408 533.497 191.408H513.529C511.545 191.408 510.073 191.824 509.113 192.656C508.153 193.424 507.673 194.608 507.673 196.208V219.152C507.673 220.752 508.025 221.936 508.729 222.704C509.497 223.472 510.617 223.856 512.089 223.856H521.401V208.88C521.401 207.664 521.657 206.8 522.169 206.288C522.745 205.712 523.641 205.424 524.857 205.424H539.737C540.953 205.424 541.817 205.712 542.329 206.288C542.905 206.8 543.193 207.664 543.193 208.88V238.544C543.193 239.76 542.905 240.656 542.329 241.232C541.817 241.744 540.953 242 539.737 242Z" fill="black"/>
</svg>
