<svg width="300" height="300" viewBox="0 0 300 300" fill="none" xmlns="http://www.w3.org/2000/svg">
<path d="M74.96 127H60.08C58.864 127 57.968 126.744 57.392 126.232C56.88 125.656 56.624 124.76 56.624 123.544V61.336C56.624 60.12 56.88 59.256 57.392 58.744C57.968 58.168 58.864 57.88 60.08 57.88H89.456C98.16 57.88 104.112 59.608 107.312 63.064C110.512 66.52 112.112 71.032 112.112 76.6V88.888C112.112 94.456 110.512 98.968 107.312 102.424C104.112 105.88 98.16 107.608 89.456 107.608H78.416V123.544C78.416 124.76 78.128 125.656 77.552 126.232C77.04 126.744 76.176 127 74.96 127ZM78.224 75.832V90.328H86.864C88.72 90.328 89.936 89.848 90.512 88.888C91.088 87.928 91.376 86.84 91.376 85.624V80.536C91.376 79.32 91.088 78.232 90.512 77.272C89.936 76.312 88.72 75.832 86.864 75.832H78.224ZM157.87 127H125.518C124.302 127 123.406 126.744 122.83 126.232C122.318 125.656 122.062 124.76 122.062 123.544V61.336C122.062 60.12 122.318 59.256 122.83 58.744C123.406 58.168 124.302 57.88 125.518 57.88H157.87C165.87 57.88 171.79 59.48 175.63 62.68C179.534 65.88 181.486 70.808 181.486 77.464V107.416C181.486 114.072 179.534 119 175.63 122.2C171.79 125.4 165.87 127 157.87 127ZM143.854 76.216V108.856H155.278C156.814 108.856 157.934 108.472 158.638 107.704C159.406 106.936 159.79 105.752 159.79 104.152V80.824C159.79 79.224 159.406 78.072 158.638 77.368C157.934 76.6 156.814 76.216 155.278 76.216H143.854ZM212.023 127H197.143C195.927 127 195.031 126.744 194.455 126.232C193.943 125.656 193.687 124.76 193.687 123.544V61.336C193.687 60.12 193.943 59.256 194.455 58.744C195.031 58.168 195.927 57.88 197.143 57.88H239.958C241.175 57.88 242.039 58.168 242.551 58.744C243.127 59.256 243.415 60.12 243.415 61.336V72.76C243.415 73.976 243.127 74.872 242.551 75.448C242.039 75.96 241.175 76.216 239.958 76.216H215.479V86.2H232.183C233.399 86.2 234.263 86.488 234.775 87.064C235.351 87.576 235.639 88.44 235.639 89.656V101.176C235.639 102.392 235.351 103.288 234.775 103.864C234.263 104.376 233.399 104.632 232.183 104.632H215.479V123.544C215.479 124.76 215.191 125.656 214.615 126.232C214.103 126.744 213.239 127 212.023 127ZM104.624 242H60.08C58.864 242 57.968 241.744 57.392 241.232C56.88 240.656 56.624 239.76 56.624 238.544V176.336C56.624 175.12 56.88 174.256 57.392 173.744C57.968 173.168 58.864 172.88 60.08 172.88H104.624C105.84 172.88 106.704 173.168 107.216 173.744C107.792 174.256 108.08 175.12 108.08 176.336V187.568C108.08 188.784 107.792 189.68 107.216 190.256C106.704 190.768 105.84 191.024 104.624 191.024H78.128V198.416H96.848C98.064 198.416 98.928 198.704 99.44 199.28C100.016 199.792 100.304 200.656 100.304 201.872V212.144C100.304 213.36 100.016 214.256 99.44 214.832C98.928 215.344 98.064 215.6 96.848 215.6H78.128V223.856H104.624C105.84 223.856 106.704 224.144 107.216 224.72C107.792 225.232 108.08 226.096 108.08 227.312V238.544C108.08 239.76 107.792 240.656 107.216 241.232C106.704 241.744 105.84 242 104.624 242ZM171.768 242H141.528C133.528 242 127.576 240.4 123.672 237.2C119.832 234 117.912 229.072 117.912 222.416V192.464C117.912 185.808 119.832 180.88 123.672 177.68C127.576 174.48 133.528 172.88 141.528 172.88H165.528C166.744 172.88 167.608 173.168 168.12 173.744C168.696 174.256 168.984 175.12 168.984 176.336V187.952C168.984 189.168 168.696 190.064 168.12 190.64C167.608 191.152 166.744 191.408 165.528 191.408H145.56C143.576 191.408 142.104 191.824 141.144 192.656C140.184 193.424 139.704 194.608 139.704 196.208V219.152C139.704 220.752 140.056 221.936 140.76 222.704C141.528 223.472 142.648 223.856 144.12 223.856H153.432V208.88C153.432 207.664 153.688 206.8 154.2 206.288C154.776 205.712 155.672 205.424 156.888 205.424H171.768C172.984 205.424 173.848 205.712 174.36 206.288C174.936 206.8 175.224 207.664 175.224 208.88V238.544C175.224 239.76 174.936 240.656 174.36 241.232C173.848 241.744 172.984 242 171.768 242ZM239.737 242H209.497C201.497 242 195.545 240.4 191.641 237.2C187.801 234 185.881 229.072 185.881 222.416V192.464C185.881 185.808 187.801 180.88 191.641 177.68C195.545 174.48 201.497 172.88 209.497 172.88H233.497C234.713 172.88 235.577 173.168 236.089 173.744C236.665 174.256 236.953 175.12 236.953 176.336V187.952C236.953 189.168 236.665 190.064 236.089 190.64C235.577 191.152 234.713 191.408 233.497 191.408H213.529C211.545 191.408 210.073 191.824 209.113 192.656C208.153 193.424 207.673 194.608 207.673 196.208V219.152C207.673 220.752 208.025 221.936 208.729 222.704C209.497 223.472 210.617 223.856 212.089 223.856H221.401V208.88C221.401 207.664 221.657 206.8 222.169 206.288C222.745 205.712 223.641 205.424 224.857 205.424H239.737C240.953 205.424 241.817 205.712 242.329 206.288C242.905 206.8 243.193 207.664 243.193 208.88V238.544C243.193 239.76 242.905 240.656 242.329 241.232C241.817 241.744 240.953 242 239.737 242Z" fill="black"/>
</svg>
